<svg xmlns="http://www.w3.org/2000/svg" viewBox="0 0 512 512">
  <defs>
    <style>
      .cls-1 {
        fill: #fff;
      }
    </style>
  </defs>
  <g id="linkedin" transform="translate(0 0)">
    <path id="Path_1" data-name="Path 1" class="cls-1" d="M132.918,512H.551V155.328H132.918ZM30.52,482h72.43V185.328H30.52Zm0,0"/>
    <path id="Path_2" data-name="Path 2" class="cls-1" d="M512,512H382.32l.055-157.789c.543-25.609-9.793-46.734-27.648-56.512-12.262-6.715-26.371-6.734-39.609-.266L313.976,512H178.257V155.328h135.8v14.5c42.191-17.105,86.934-14.637,125.813,7.6C483.688,202.492,512,248.836,512,295.491Zm-99.7-30h69.734V295.492c0-36.082-22.387-72.2-57.031-92.02a111.571,111.571,0,0,0-54.965-14.852h-.277c-21.328,0-42.547,6.141-63.078,18.25L284.09,220.2V185.328H208.227V482h75.941l1.066-201.234,6.594-4.43c24.277-16.309,53.168-18.16,77.281-4.957a79.874,79.874,0,0,1,31.926,32.965c7.758,14.621,11.668,32.023,11.3,50.34Zm0,0"/>
    <path id="Path_3" data-name="Path 3" class="cls-1" d="M66.461,133.055a66.527,66.527,0,1,1,66.457-66.527,66.568,66.568,0,0,1-66.457,66.527ZM66.461,30a36.529,36.529,0,1,0,36.488,36.527A36.552,36.552,0,0,0,66.461,30Zm0,0"/>
  </g>
</svg>
